<svg xmlns="http://www.w3.org/2000/svg" width="101.35" height="42.52">
  <title>COGENT LABS</title>
  <defs>
    <style>
      .theme{fill:#003d56}
    </style>
  </defs>
  <path class="theme" d="M53.64 11a4.63 4.63 0 0 0-.77 0v-.68a3.62 3.62 0 0 0 .78.05h2.77V7.61h-2.65a7.47 7.47 0 0 0-.81 0V7a4.1 4.1 0 0 0 .82 0h3.31a3.48 3.48 0 0 0 0 .5v3.21a5.79 5.79 0 0 0 0 .65h-.68V11zm5.22-2.35a7.28 7.28 0 0 0 .94 0h3.31a6.12 6.12 0 0 0 .91 0v.71h-5.21zm7-.56a8.91 8.91 0 0 1 1.6.82l-.32.57a6.93 6.93 0 0 0-1.62-.87zm-.23 2.76a5.12 5.12 0 0 0 1.72-.39 3.86 3.86 0 0 0 1.79-1.35 4 4 0 0 0 .72-1.36 3.3 3.3 0 0 0 .54.46 5.49 5.49 0 0 1-1.06 1.69 5.18 5.18 0 0 1-2.58 1.43c-.11 0-.34.09-.71.16l-.24.06zm.71-4.23a10.09 10.09 0 0 1 1.58.78l-.34.6A6.81 6.81 0 0 0 66 7.13zm3.29-.23a4 4 0 0 1 .63.92l-.38.21a4.54 4.54 0 0 0-.63-.94zm.71-.39a4.23 4.23 0 0 1 .63.89l-.37.22a4.41 4.41 0 0 0-.6-.88zm3.95 4.87h1.2a3.59 3.59 0 0 0 .63 0v.59a3.53 3.53 0 0 0-.63 0h-2.94a5.37 5.37 0 0 0-.63 0v-.59a3 3 0 0 0 .63 0h1.15v-2h-.78a4 4 0 0 0-.62 0v-.58a3.59 3.59 0 0 0 .61 0h2.21a3.72 3.72 0 0 0 .62 0v.58a5.09 5.09 0 0 0-.62 0h-.83zm3.64-.17a5.56 5.56 0 0 0 1.8-.46 4.2 4.2 0 0 0 1.82-1.49 5.11 5.11 0 0 0 .64-1.23 2.31 2.31 0 0 0 .54.5 5.42 5.42 0 0 1-1.91 2.37 6.49 6.49 0 0 1-2.31.92 3.42 3.42 0 0 0-.39.09zm.47-3.8a8.94 8.94 0 0 1 1.54 1.17l-.44.55A6.84 6.84 0 0 0 78 7.39zm6.38 4.69a6 6 0 0 0 0-.78V7.17a4.28 4.28 0 0 0 0-.74h.72a6.73 6.73 0 0 0 0 .75v1a16.6 16.6 0 0 1 2.71 1.32l-.35.61a6.64 6.64 0 0 0-.76-.47c-.46-.25-1.13-.58-1.46-.72l-.2-.1a1.36 1.36 0 0 0 0 .24v2.53zm4.94-3.51a5.1 5.1 0 0 0 .85.05h2.92a1.91 1.91 0 0 0 .57-.05l.3.34a2 2 0 0 0-.17.39 4.19 4.19 0 0 1-1.45 2 5.5 5.5 0 0 1-1.54.78 2 2 0 0 0-.39-.6 3.84 3.84 0 0 0 1.73-.83 3.37 3.37 0 0 0 1-1.52h-3a7.4 7.4 0 0 0-.83 0zm.52-1.44a5 5 0 0 0 .77 0H93a5.88 5.88 0 0 0 .77 0v.64a5.64 5.64 0 0 0-.77 0h-2a6.27 6.27 0 0 0-.76 0zm7.01 1.99l-.1.4a7.29 7.29 0 0 1-.45 1.23 5.44 5.44 0 0 1-.56.91 2 2 0 0 0-.59-.35 4.19 4.19 0 0 0 .88-1.56 3.94 3.94 0 0 0 .19-.78zM98 7.05a3.27 3.27 0 0 0 0-.63h.7a5.36 5.36 0 0 0 0 .64v.36h1.3a5.28 5.28 0 0 0 .79 0V8a6 6 0 0 0-.79 0h-1.4v2.93a6.29 6.29 0 0 0 0 .73h-.7a4.55 4.55 0 0 0 0-.74V8h-1.32a5.42 5.42 0 0 0-.77 0v-.62a5.48 5.48 0 0 0 .78 0H98zm1.94 1.43a3.7 3.7 0 0 0 .22.69 5.76 5.76 0 0 0 .9 1.64 2.65 2.65 0 0 0-.57.37 8.16 8.16 0 0 1-1-2.26 3 3 0 0 0-.1-.29zm0-2.27a3.79 3.79 0 0 1 .62.88l-.38.21a4.6 4.6 0 0 0-.61-.9zm.8-.23a4 4 0 0 1 .63.89l-.37.22a4.41 4.41 0 0 0-.63-.92z"/>
  <path class="theme" d="M59.23 16.47V18a3.6 3.6 0 0 0-2.35-.95 3 3 0 0 0-2.25 1 3.24 3.24 0 0 0-.93 2.34 3.13 3.13 0 0 0 .93 2.3 3 3 0 0 0 2.26.94 2.75 2.75 0 0 0 1.17-.22 4.41 4.41 0 0 0 .56-.3 5.9 5.9 0 0 0 .61-.47v1.56a4.65 4.65 0 0 1-2.36.64 4.46 4.46 0 0 1-4.49-4.46 4.47 4.47 0 0 1 1.1-3 4.5 4.5 0 0 1 5.75-1zm1.09 3.83a4.24 4.24 0 0 1 1.34-3.15 4.41 4.41 0 0 1 3.22-1.31 4.52 4.52 0 0 1 4.51 4.51 4.27 4.27 0 0 1-1.33 3.18 4.6 4.6 0 0 1-6.27.15 4.29 4.29 0 0 1-1.47-3.38zm1.32 0a3.21 3.21 0 0 0 3.19 3.29 3.1 3.1 0 0 0 2.3-.94 3.37 3.37 0 0 0 0-4.66 3 3 0 0 0-2.28-.94 3.09 3.09 0 0 0-2.29.94 3.14 3.14 0 0 0-.92 2.33zm13.84-.14h3.59v.29a6 6 0 0 1-.23 1.73 3.76 3.76 0 0 1-.76 1.3A3.94 3.94 0 0 1 75 24.85a4.22 4.22 0 0 1-3.12-1.32 4.54 4.54 0 0 1 0-6.38 4.56 4.56 0 0 1 5.12-.9 5.37 5.37 0 0 1 1.66 1.35l-.94.89a3.16 3.16 0 0 0-2.6-1.42 3.08 3.08 0 0 0-2.31.95 3.17 3.17 0 0 0-.93 2.34A3.26 3.26 0 0 0 75 23.62a2.63 2.63 0 0 0 1.78-.62 2.31 2.31 0 0 0 .86-1.58h-2.16zm10.01-2.93H82v2.09h3.38v1.23H82v2.9h3.48v1.23H80.7V16h4.79zm1.76 7.45v-9.27L93.58 22v-6h1.31v9.21l-6.33-6.61v6.08zm12.11-7.45v7.45h-1.31v-7.45h-2V16h5.3v1.23zm-45.23 12.9v7.45h2.55v1.23h-3.86v-8.68zm9.35 6.57h-3.71l-1 2.11h-1.38l4.29-9.23 4.15 9.23H64.4zM63 35.47l-1.29-2.95-1.35 2.95zm4 3.34v-8.68h1.3a5.74 5.74 0 0 1 1.39.13 2 2 0 0 1 .89.46 2.48 2.48 0 0 1 .58.82 2.66 2.66 0 0 1 .21 1 2 2 0 0 1-.71 1.58 2 2 0 0 1 1.04.88 2.45 2.45 0 0 1-.31 3.09 2.58 2.58 0 0 1-1 .6 5.57 5.57 0 0 1-1.48.16zm1.31-5h.41a1.49 1.49 0 0 0 1.07-.33 1.23 1.23 0 0 0 .34-1 1.16 1.16 0 0 0-.35-.93 1.46 1.46 0 0 0-1-.32h-.46zm0 3.72h.81a2 2 0 0 0 1.3-.35 1.18 1.18 0 0 0 .44-1 1.22 1.22 0 0 0-.42-.94 2.18 2.18 0 0 0-1.52-.24h-.66zm10.33-6.11l-1.06.63a2 2 0 0 0-.57-.68 1.42 1.42 0 0 0-.72-.18 1.37 1.37 0 0 0-.91.31 1 1 0 0 0-.36.77c0 .42.31.76.94 1l.87.36a3.66 3.66 0 0 1 1.55 1 2.38 2.38 0 0 1 .49 1.51 2.66 2.66 0 0 1-.8 2 2.94 2.94 0 0 1-3.87.12 3.12 3.12 0 0 1-.9-1.89l1.33-.29a2.3 2.3 0 0 0 .31 1.06 1.37 1.37 0 0 0 1.18.56 1.35 1.35 0 0 0 1-.41 1.42 1.42 0 0 0 .41-1 1.64 1.64 0 0 0-.07-.46 1.5 1.5 0 0 0-.22-.39 1.62 1.62 0 0 0-.39-.33 3.62 3.62 0 0 0-.56-.3l-.84-.35c-1.19-.5-1.78-1.23-1.78-2.2a2.12 2.12 0 0 1 .74-1.64A2.72 2.72 0 0 1 76.3 30a2.6 2.6 0 0 1 2.34 1.42z"/>
  <path class="theme" d="M42.61 18.54a15 15 0 0 0-1.48-4.38l-.3-.61a11 11 0 0 0-.61-2.3 13.32 13.32 0 0 0-5.52-6.86 21.53 21.53 0 0 0-4.55-2.11h-.17c-.26-.16-.62-.37-1-.55-.78-.4-1.6-.73-2.3-1A9.67 9.67 0 0 0 23.16 0a17.55 17.55 0 0 0-5.7 1c-.7.24-1.4.53-2.08.82l-1 .4-.3.12a2.42 2.42 0 0 1-1.4.3h-.13a18.12 18.12 0 0 0-3.18 1l-.8.36c-.35.16-.71.34-1.07.49a9.43 9.43 0 0 0-2.24 1.37A9.09 9.09 0 0 0 4 7.13a11.34 11.34 0 0 0-2.9 4.12 12.14 12.14 0 0 0-.93 4.59v.3L0 17.77v.37a22.71 22.71 0 0 0 .15 2.5 27.2 27.2 0 0 0 .52 2.72v.18c.21.91.44 1.74.7 2.54.07.23.14.46.22.69A23.45 23.45 0 0 0 3.25 31c.13.26.26.52.38.78s.28.61.44.9.37.58.55.86.32.47.46.71a15.2 15.2 0 0 0 1.15 1.58l.5.65a10.38 10.38 0 0 0 .87 1 15.41 15.41 0 0 0 4.08 3 20.41 20.41 0 0 0 3 1.18 17.59 17.59 0 0 0 5.32.86h.27a6.51 6.51 0 0 0 .77 0c2-.23 3.84-.51 5.6-.87a15.94 15.94 0 0 0 5.82-2.52 4 4 0 0 1 .78-.43 10.1 10.1 0 0 0 2.64-1.7 8.53 8.53 0 0 0 1.68-2.2.43.43 0 0 0 0-.07 1 1 0 0 1 .17-.23 6.31 6.31 0 0 0 1.34-1.66 14.45 14.45 0 0 0 2-5.06 2 2 0 0 1 .15-.51A14 14 0 0 0 42 25.4c.26-.77.45-1.53.59-2.11a12.25 12.25 0 0 0 .02-4.75zm-2.91 9.77l-.08.17a5.12 5.12 0 0 1-.3.55l-.1.17.07-.54c.07-.54.13-1 .19-1.54v-.17a2.51 2.51 0 0 0 0-.27 24.11 24.11 0 0 0-.11-3.9c.28-.59.56-1.16.83-1.75a7.92 7.92 0 0 0 .31-.75c0 .08 0 .17.08.26a9.21 9.21 0 0 1 .07 4.37 15.43 15.43 0 0 1-.56 2.18 11 11 0 0 1-.4 1.22zm.19.4a.37.37 0 0 1-.19.29.37.37 0 0 1 .19-.29zm-5.81 5.93c-.72.61-1.48 1.21-2.22 1.78l-.39.31-.19.13c.12-.15.22-.29.31-.42a14.55 14.55 0 0 0 1.8-3.4 3.5 3.5 0 0 1 .83-1.42 2.24 2.24 0 0 0 .35-.46l.15-.22a9.55 9.55 0 0 0 1.4-2.07l.08-.09a1.73 1.73 0 0 0 .17-.21c.15-.27.31-.54.47-.8.4-.69.82-1.39 1.18-2.11s.75-1.49 1.18-2.37c0 .47 0 .95.06 1.41v.47a19.5 19.5 0 0 1-.22 3l-.06.48c-.06.46-.16.92-.26 1.36v.09a.93.93 0 0 1-.19.39 2.66 2.66 0 0 1-.32.35c-1.59 1.54-2.9 2.75-4.13 3.8zm3.29-2.5a16 16 0 0 1-4.24 3.76c1.51-1.26 3-2.59 4.19-3.73zm-10.22 7.22l-.36.15a4.38 4.38 0 0 0-.93.44.63.63 0 0 1-.32.08h-.09a28.77 28.77 0 0 1-4.29.22A16.1 16.1 0 0 1 18 39a12.23 12.23 0 0 0 1.84.19 28.7 28.7 0 0 0 4.51-.14A27.77 27.77 0 0 0 29.39 38c-.17.19-.34.36-.51.52a16 16 0 0 1-1.73.84zm-18.81-4c.54.34 1.11.7 1.73 1a17.62 17.62 0 0 0 1.8.76 17.18 17.18 0 0 0 3.43 2.7l.61.33a1.66 1.66 0 0 0 .41.19l.37.16c-.64-.14-1.24-.3-1.83-.48a13.57 13.57 0 0 1-4-2.06 11.78 11.78 0 0 1-1-.85c-.15-.14-.3-.28-.46-.41a7.16 7.16 0 0 1-1.1-1.16l-.12-.18v-.05c.04-.01.09.03.16.08zm-.23-.56l-.33-.21-.42-.28a.58.58 0 0 1-.17-.14c-.11-.15-.23-.3-.34-.43a21.41 21.41 0 0 0 3.49 2.42 6.49 6.49 0 0 1-.7-.37c-.35-.21-.69-.44-1-.66zM18.84 2.52H22a18.68 18.68 0 0 1 4.9.93 12.68 12.68 0 0 1 1.33.55l.58.3a10.73 10.73 0 0 1 1.6.93l.77.58.21.15-.71-.31-.82-.36c-.88-.37-1.81-.72-2.77-1l-.33-.18a11.6 11.6 0 0 0-3.69-1.3 7.39 7.39 0 0 0-.91-.07h-2.75l-1.47-.13zm-1.47-.27A15.75 15.75 0 0 1 20 1.69a20.27 20.27 0 0 1 3.26-.29 23.3 23.3 0 0 1 3.44.3c.47.24 1.52.72 1.95.91a4 4 0 0 1 1.17.71 5.58 5.58 0 0 1 1.27 1.5l.18.34a3.67 3.67 0 0 1 .27.52l-1.11-.8a19.13 19.13 0 0 0-3.16-1.67l-.15-.07a10.48 10.48 0 0 0-2.29-.66 19.92 19.92 0 0 0-3.91-.36H19.7l-1.52.06zM30.68 6l.64.28a1.27 1.27 0 0 1 .23.12l-.7-.12c-.34-.2-.65-.37-1-.53h-.06l-.95-.47c.64.16 1.25.42 1.84.72zm1.68 1.66c.09.25.18.51.27.8L32 7.84c-.53-.39-1-.84-1.46-1.22l-.17-.15.48.1c.52.32 1.02.67 1.51 1.04zm-.58-.8a.45.45 0 0 1 .36.25zm3.68 21.9a.61.61 0 0 0 .17-.15c.3-.48.63-1 1-1.69a.24.24 0 0 0 0-.14.43.43 0 0 0 .26-.41l.11-.12a2.22 2.22 0 0 0 .28-.33c.14-.2.27-.41.4-.62l.33-.52a1.8 1.8 0 0 1 .19-.21 1.18 1.18 0 0 1-.07.2 38.74 38.74 0 0 1-2 3.62 2.31 2.31 0 0 0-.18.35l-.07.16-.18.23-.38.52-.61.91-.26.39-.34.31.06-.37h.05a.57.57 0 0 0 .16-.15c.19-.31.38-.65.6-1.06a1.72 1.72 0 0 0 .07-.21.64.64 0 0 1 0-.07c.13 0 .14-.16.14-.26a.24.24 0 0 0 .27-.43zm2.77-4.63a.91.91 0 0 0-.11.16l-.58.9-.48.75a1 1 0 0 0-.1.24.29.29 0 0 1 0 .09.38.38 0 0 0-.27.4l-.06.05a.86.86 0 0 0-.19.19c-.35.55-.68 1.11-1 1.58a.61.61 0 0 0-.05.18v.05a.24.24 0 0 0-.14.26.23.23 0 0 0-.13.27 4.58 4.58 0 0 0-.87 1.49.22.22 0 0 1 0-.21l.06-.23c0-.16.09-.34.13-.51.07-.38.13-.76.19-1.13l.09-.51v-.38a1.09 1.09 0 0 1 .37-.62c.74-.74 1.49-1.51 2.2-2.25l.48-.49c.18-.18.34-.36.51-.54l.14-.15a1.49 1.49 0 0 1-.19.36zm-5.69 9.1c-.21.2-.42.4-.64.59l-.68.63a11.31 11.31 0 0 1-2.61 1.74A19.09 19.09 0 0 1 22 38.08a20.87 20.87 0 0 1-4.87 0 3.15 3.15 0 0 1-1.82-.68 3.81 3.81 0 0 0-.32-.24 2.27 2.27 0 0 1-.45-.37c.07-.1.14-.07.23 0h.05a13.67 13.67 0 0 0 3 .68 12 12 0 0 0 4.74-.34 12.77 12.77 0 0 0 3.75-1.83 24.06 24.06 0 0 0 2.52-2.11c.84-.79 1.67-1.61 2.47-2.41l.2-.2.1-.09a.59.59 0 0 0 .25-.33.26.26 0 0 0 .26-.26.83.83 0 0 0 .39-.27l.1-.1 1.27-1.21.45-.43a.45.45 0 0 1 0 .42.19.19 0 0 0 0 .07c-.1.53-.22 1.07-.33 1.59 0 .16-.07.32-.11.48l-.06.26c0 .12-.06.24-.08.37a3.91 3.91 0 0 1-1.2 2.1zm.32.48a.51.51 0 0 1-.21.36.86.86 0 0 1 .21-.41zm-.31.51a.15.15 0 0 1-.06.13.22.22 0 0 1 .06-.18zm4.92-9.86c-.6.64-1.22 1.28-1.83 1.89l-.5.51a.8.8 0 0 1-.2.15l-.07.05a47.08 47.08 0 0 0-1.66-17.63 12.72 12.72 0 0 1 2 2.32l.33.5a13.54 13.54 0 0 1 1.37 2.37c.11.28.23.56.35.84a14.76 14.76 0 0 1 .63 1.6l.08.26a15.46 15.46 0 0 1 .67 2.66A20.43 20.43 0 0 0 39 22.1a.94.94 0 0 0 0 .16 14.24 14.24 0 0 1-1.53 2.05zm.75-7.36a.3.3 0 0 0 0-.1l-.27-.7a19.21 19.21 0 0 0-1.3-2.9 20.11 20.11 0 0 0-2.33-3.3A15.41 15.41 0 0 0 33 8.76l-.26-.82a19 19 0 0 1 1.66 1.47 29.67 29.67 0 0 1 3.75 4.73 16.25 16.25 0 0 1 1.64 3.4c.19.54.34 1.1.48 1.64v.19l-.06.41a3.82 3.82 0 0 1-.36 1.08c-.17.35-.37.69-.59 1.05l-.06-.34-.09-.47a35.14 35.14 0 0 0-.89-4.1zm.61-2.36a15.68 15.68 0 0 0-1.89-2.76c-.29-.34-.59-.72-.92-1.15a16.58 16.58 0 0 0-1.89-2A17.44 17.44 0 0 0 32.6 7.4a1.21 1.21 0 0 1-.05-.14l-.06-.17a1.83 1.83 0 0 1 .45.07 32.24 32.24 0 0 1 3.5 3.44 20 20 0 0 1 1.93 2.64l.28.42.22.33.06.09a2.33 2.33 0 0 1 .2.34l.3.69c.33.74.66 1.5 1 2.27a5.49 5.49 0 0 1 .2.68 1.16 1.16 0 0 1 0 .18c0 .12-.06.25-.09.4a15.78 15.78 0 0 0-1.71-3.98zm-7.69-7.09c.29.26.6.51.89.75s.47.38.69.58a.12.12 0 0 1 .05 0c.32 1 .62 2.15.94 3.56.11.49.2 1 .27 1.5 0 .15 0 .31.08.46a52 52 0 0 1 .63 5.35v3.61c0 .65 0 1.31-.09 1.94s-.07 1-.09 1.46a.9.9 0 0 1-.32.71c-.58.55-1.19 1.14-1.81 1.75a1.31 1.31 0 0 1-.12.11.74.74 0 0 0-.3.41.28.28 0 0 0-.26.26 1 1 0 0 0-.48.33l-.11.12L30 31.71c-.31.32-.63.63-.95.94a23 23 0 0 1-2.59 2.22A12 12 0 0 1 21.82 37a12.92 12.92 0 0 1-6.54-.36 7.09 7.09 0 0 1-.65-.22h-.08a5.31 5.31 0 0 1-2-1.24 28.92 28.92 0 0 1-4.33-5.25 27.44 27.44 0 0 1-1.39-2.63l-.22-.45a22.29 22.29 0 0 1-1.54-4.29 22.51 22.51 0 0 1-.66-3.46V17a15.39 15.39 0 0 1 .81-4.79 1.32 1.32 0 0 1 .52-.69c.42-.33.79-.6 1.13-.85a25.15 25.15 0 0 1 6.52-3.3 26.79 26.79 0 0 1 5-1.15 44.53 44.53 0 0 1 5.59-.34h1.28a10.76 10.76 0 0 1 1.62.13h.25a1 1 0 0 1 .45 0h.51c.56.07 1.13.14 1.69.23.49.53.99.97 1.36 1.31zM4.78 12.48c0 .12 0 .21-.08.3a13.56 13.56 0 0 0-.52 2.38 20.37 20.37 0 0 0-.09 3.48 13.78 13.78 0 0 0 .43 2.86c.27 1.06.52 2 .82 3A25.49 25.49 0 0 0 7 28.32a26.17 26.17 0 0 0 2.95 4.45c.4.51.86 1 1.31 1.46l.6.64.14.13h-.17a22.11 22.11 0 0 1-2.37-1.77c-.14-.12-.29-.23-.43-.33l-.29-.21a1 1 0 0 1-.26-.25l-.39-.61c-.39-.6-.79-1.22-1.15-1.84a38.53 38.53 0 0 1-3.32-7.93 27.19 27.19 0 0 1-.88-4 18.73 18.73 0 0 1-.25-2.49 1.36 1.36 0 0 1 .24-.83 13.5 13.5 0 0 1 1.87-2.19l.17-.13.09-.06a.93.93 0 0 0-.08.12zm4.56 21.06c.18.14.34.25.49.38a18.27 18.27 0 0 0 3.34 2.16.2.2 0 0 0 .08 0 .47.47 0 0 1 .18.12 6 6 0 0 0 1.23 1l.52.38v.06h-.17a3.4 3.4 0 0 1-.46-.09l-2.51-.79a.93.93 0 0 1-.3-.2l-.2-.21a11.62 11.62 0 0 1-.89-1c-.39-.46-.76-1-1.12-1.42-.13-.17-.25-.34-.38-.5a.38.38 0 0 1 0-.11zm6.27 6.18a13.39 13.39 0 0 1-1.35-.87 14.3 14.3 0 0 1-1.13-.93l-.45-.38-.09-.09h.1a30.48 30.48 0 0 0 4.39 1.34c.36.2.74.4 1.24.65a14.19 14.19 0 0 0 1.81.77h-2.84a2.55 2.55 0 0 1-1.68-.49zm4 .82c.59 0 1.2.06 1.79.06a12.26 12.26 0 0 0 1.21.22A13.77 13.77 0 0 1 19 41c-.31-.06-.6-.13-.88-.21s-.58-.18-.87-.28c.75-.05 1.58-.01 2.35.03zm6.58-2.11a25.81 25.81 0 0 1-6.72.38 12.09 12.09 0 0 1-2.41-.35h1.08a18.14 18.14 0 0 0 4.86-.23 19.19 19.19 0 0 0 3.67-.94 15.28 15.28 0 0 0 5.51-3.38l.24-.21a17.69 17.69 0 0 1-2.54 3.77 27.56 27.56 0 0 1-3.7.96zm4.44-1.35a.75.75 0 0 1 0-.11l1.55-2.27.06-.08a.38.38 0 0 1 .16-.19 2.4 2.4 0 0 1-.41.85l-.07.1c-.27.42-.58.83-.87 1.22l-.24.33a.69.69 0 0 1-.15.14h-.06zm9.46-21.36A21.62 21.62 0 0 0 38 12.1a22.32 22.32 0 0 0-2.54-3c-.48-.5-1-1-1.52-1.46a13.3 13.3 0 0 1 1.76 1.28 18.55 18.55 0 0 1 2.88 2.92 10.92 10.92 0 0 1 1.89 3.9 5.82 5.82 0 0 1 .2 1.59c-.15-.47-.34-.99-.59-1.61zm.45-1v.06a.87.87 0 0 1-.15-.24A12.48 12.48 0 0 0 37.31 10c-.35-.34-.73-.67-1.1-1l-.28-.25a2.65 2.65 0 0 1 .34.19c.16.11.35.22.55.34a5.35 5.35 0 0 1 1 .75.7.7 0 0 0 .16.14c.23.3.48.59.72.88l.72.87.06.15a2.3 2.3 0 0 0 .15.32 7.79 7.79 0 0 1 .78 1.82 1.93 1.93 0 0 1 .12.48zM32.45 3.48a14.39 14.39 0 0 1 4.9 3.45 12.16 12.16 0 0 1 2.59 4.39c.12.39.24.8.35 1.2-.34-.61-.64-1.11-.95-1.56a29.6 29.6 0 0 0-2.56-3.31 39.16 39.16 0 0 0-4.11-3.71c-.19-.15-.4-.29-.58-.41L31.18 3zm-2.51-1h.07l.12.08.31.21.71.47a21.39 21.39 0 0 1 3.6 2.78A26.35 26.35 0 0 1 37.55 9a17.6 17.6 0 0 1 1.1 1.51c-.14-.15-.3-.3-.47-.45a8.9 8.9 0 0 0-2.87-1.89.91.91 0 0 0-.2-.19 8.06 8.06 0 0 0-.89-.57L33 6.77l-.15-.07c-.26-.22-.54-.44-.86-.68v-.09a8.23 8.23 0 0 0-1.52-2.47 4.54 4.54 0 0 0-.94-.78A13.71 13.71 0 0 0 27.89 2a21.05 21.05 0 0 1 2.05.52zm-14.71-.3a23.81 23.81 0 0 1 5-1.57 14.36 14.36 0 0 1 4.33-.2 7.28 7.28 0 0 1 1.49.36c.62.22 1.24.48 1.83.73l.2.09.51.22a20.91 20.91 0 0 0-4.89-.73 22.52 22.52 0 0 0-3.47.23 17.51 17.51 0 0 0-3.88.94H15.1c-.01-.01.05-.04.13-.07zm1.88.63L15.44 3a2.29 2.29 0 0 1 1-.15h.72zm-4.06.32c.44-.07.95-.13 1.43-.13h.06-.06l-.76.07-.62.08h-.17zM13 4.2a4.32 4.32 0 0 1 .72-.53 1.86 1.86 0 0 1 .59-.16c.42-.07.89-.13 1.43-.19 1-.11 2-.22 3.08-.3h.79a34.57 34.57 0 0 1 3.78.57c1 .21 2 .47 3 .75a6.07 6.07 0 0 1 1.93 1c.19.15.39.28.59.41l.37.25-1.9-.26h-2.03a49.11 49.11 0 0 0-5.73.16 28.33 28.33 0 0 0-6.42 1.34A26.14 26.14 0 0 0 8.25 9.4c-.48.3-1 .62-1.42.94l-.67.45a1.37 1.37 0 0 1-.2.13h-.07c-.07-.09 0-.15 0-.22a12.2 12.2 0 0 1 1.72-2.33 21.41 21.41 0 0 1 4.14-3.43l.57-.34zm-.72-.2h.23c0 .12-.06.16-.15.2a22.23 22.23 0 0 0-2.5 1.68A15.18 15.18 0 0 0 6.2 9.64c-.31.47-.57 1-.83 1.45l-.1.2a1.64 1.64 0 0 1-.38.54 13.39 13.39 0 0 0-2.26 2.47l-.07.1H2.5a.28.28 0 0 1 0-.09 2.17 2.17 0 0 1 0-.26v-.74a16.85 16.85 0 0 1 1.58-2.6 25.27 25.27 0 0 1 1.81-2.18A30.29 30.29 0 0 1 9 5.64a10.09 10.09 0 0 1 2.7-1.46zm-2.13.36a4.62 4.62 0 0 0 .6-.19l.15-.06a13.15 13.15 0 0 0-3.53 2.5 25.39 25.39 0 0 0-2.63 2.74l-.12.15a21.25 21.25 0 0 0-1.91 2.74.64.64 0 0 1-.08.14c0-.12 0-.22.05-.31a18.48 18.48 0 0 1 .92-1.9v-.05c.17-.32.36-.67.56-1a10.42 10.42 0 0 1 3-3.32 7.86 7.86 0 0 1 2.99-1.46zM6.53 5.5a10.12 10.12 0 0 1 2.17-1q-.25.12-.51.27a23.74 23.74 0 0 0-3.81 2.75A7 7 0 0 1 6.53 5.5zm-2 2.34h.1a.81.81 0 0 1 0 .11A27.83 27.83 0 0 0 3 10.58a11.21 11.21 0 0 1 .72-1.92v-.14c.28-.26.56-.52.78-.68zm-1 .45l.26-.31a3.47 3.47 0 0 0-.21.37l-.08.07c-.1-.07-.07-.1-.03-.13zM.85 17.07a.36.36 0 0 0 0 .1 10.79 10.79 0 0 1 0 1.25v.07a.3.3 0 0 0 0 .1l-.06.19a17.73 17.73 0 0 1-.22-2.17c.05-.35.07-.71.09-1.06s0-.47 0-.7a3.16 3.16 0 0 1 .16-.74c.21-.61.46-1.34.74-2.05A10.44 10.44 0 0 1 3.1 9.3c-.12.31-.22.63-.32 1s-.27 1-.38 1.54a11.38 11.38 0 0 0-.8 2.62 2.27 2.27 0 0 1-.14.51 9.45 9.45 0 0 0-.57 1.93zM2.2 14c0 .24 0 .49-.07.73v.15a1 1 0 0 1-.12.41A10.76 10.76 0 0 0 1.2 17a7.37 7.37 0 0 1 .48-1.69l.13-.31.13-.31c.06-.24.16-.45.26-.69zm-.94 7.26c0-.3-.07-.61-.11-.91v-.14a9 9 0 0 1 0-1.87A8.23 8.23 0 0 1 2 15.93a1.13 1.13 0 0 1 .05.32 1.1 1.1 0 0 0 0 .18q0 .29.06.51a21.43 21.43 0 0 0 .59 3.48 35.46 35.46 0 0 0 1.62 5.09 37.46 37.46 0 0 0 2.61 5.09.84.84 0 0 1 .07.19.42.42 0 0 1-.25-.21v-.07l-.07-.08a35.28 35.28 0 0 1-2.76-3.65 24.25 24.25 0 0 1-2.1-4c-.25-.48-.42-1.04-.56-1.5zm.37 2.57c0-.14 0-.29-.07-.43s-.09-.48-.13-.72a26.59 26.59 0 0 0 4 6.7 34.13 34.13 0 0 0 2.37 2.78c.1.11.2.22.29.34.73 1.07 1.59 2.19 2.62 3.42a.58.58 0 0 1 0 .11v.06a18.67 18.67 0 0 1-5.95-4.88c-.22-.33-.4-.61-.55-.88s-.27-.45-.4-.67-.4-.65-.58-1-.46-1-.67-1.47l-.14-.35a.85.85 0 0 1 0-.24v-.1l-.09-.5a2.85 2.85 0 0 0-.08-.48 12.5 12.5 0 0 0-.46-1.2 2.46 2.46 0 0 1-.16-.47zM31.3 39.47l-.34.17c-.47.24-1 .49-1.45.72a13.86 13.86 0 0 1-3.69 1.07l-.37.07c-1 .16-2 .34-3.06.49a16.42 16.42 0 0 1-3.65.13 19.81 19.81 0 0 1-5.36-1.26 13.6 13.6 0 0 1-3-1.49A14.35 14.35 0 0 1 7.3 36.6c-.13-.17-.26-.33-.4-.49-.34-.41-.69-.84-1-1.28l-.23-.33A15 15 0 0 1 4 31.66c-.17-.42-.4-.83-.61-1.23l-.09-.15a12.45 12.45 0 0 1-.75-1.82L2.34 28c-.06-.16-.12-.32-.17-.48.23.48.47 1 .73 1.42a1 1 0 0 0 .1.28 14 14 0 0 0 1.89 3c.1.11.19.24.28.36a5.34 5.34 0 0 0 .59.67 17 17 0 0 1 1.87 2.12l.44.54a14.35 14.35 0 0 0 2 1.91l.11.09a12.61 12.61 0 0 0 3.76 2.23l.21.08A12.82 12.82 0 0 0 17 41h.06a9.19 9.19 0 0 0 2.6.38 13.69 13.69 0 0 0 3.94 0 9.54 9.54 0 0 0 3.4-1.13 19.19 19.19 0 0 0 3.31-.65 5.64 5.64 0 0 1 1.1-.22.94.94 0 0 1-.11.09zm3.75-2.23a3.6 3.6 0 0 1 1.06-1 3.92 3.92 0 0 1-1.06 1zm2.51-3.13a2.21 2.21 0 0 1-.58.82l-.66.61c-.86.81-1.75 1.64-2.69 2.4a4.56 4.56 0 0 1-1.66.89l-.55.15a29.61 29.61 0 0 1-3.25.79 2.23 2.23 0 0 1-.36 0l.25-.15a7.64 7.64 0 0 0 .86-.53 12 12 0 0 0 1.22-1c.28-.19.54-.38.79-.57a1.88 1.88 0 0 1 .23-.16l.29-.22a2.93 2.93 0 0 1 .82-.45 8.78 8.78 0 0 0 2.2-1.33A21.09 21.09 0 0 0 37 33.09a10.14 10.14 0 0 0 .73-.89l.32-.42.4-.51v.12a.75.75 0 0 1 0 .23c-.3.82-.59 1.66-.89 2.49zm.54-.56a2.91 2.91 0 0 0 .12-.35c.12-.33.21-.62.3-.91s.14-.52.2-.77a2.29 2.29 0 0 1 .07-.28c0-.08 0-.16.05-.24s.07-.3.11-.45a1 1 0 0 1 .21-.37 9.08 9.08 0 0 0 1-1.18c.1-.14.2-.29.31-.43l.14-.17a11.45 11.45 0 0 1-2.51 5.15zm3-7.82v.89a.22.22 0 0 0 0 .08.51.51 0 0 1 0 .22 5.37 5.37 0 0 1-1.1 1.72.36.36 0 0 1 0-.1 1.29 1.29 0 0 1 .08-.28 11.6 11.6 0 0 0 .78-2.33l.12-.48c0-.15.07-.3.11-.45a3.4 3.4 0 0 1 .07-.34 7.81 7.81 0 0 1-.05 1.07zm1.34-3.88a11.67 11.67 0 0 1-.61 3l-.3.88-.14.39v-.05a.86.86 0 0 1 0-.16 11.93 11.93 0 0 0-.13-3.47 1.07 1.07 0 0 1 0-.25 10.49 10.49 0 0 0-.07-1.86c0-.25 0-.52-.06-.78a8.34 8.34 0 0 0-.12-.94 5.3 5.3 0 0 0 0-1v-.94a10.64 10.64 0 0 0-.1-1.67.67.67 0 0 1 0-.2v-.2a1.62 1.62 0 0 1 0-.22 13.44 13.44 0 0 1 .63 1.43 14.62 14.62 0 0 1 .84 3.41 15.75 15.75 0 0 1 .07 2.63z"/>
</svg>
